<?xml version="1.0" encoding="UTF-8"?>
<svg width="145px" height="46px" viewBox="0 0 145 46" version="1.1" xmlns="http://www.w3.org/2000/svg" xmlns:xlink="http://www.w3.org/1999/xlink">
    <!-- Generator: sketchtool 50.2 (55047) - http://www.bohemiancoding.com/sketch -->
    <title>2DD854F8-F781-431B-AE00-57434AABC813</title>
    <desc>Created with sketchtool.</desc>
    <defs></defs>
    <g id="UI_desktop" stroke="none" stroke-width="1" fill="none" fill-rule="evenodd">
        <g id="UI_LEKKI" transform="translate(-144.000000, -205.000000)">
            <g id="HEADER" transform="translate(48.000000, 152.000000)">
                <g id="lekki_logo" transform="translate(96.000000, 53.000000)">
                    <path d="M43.7831325,19.8963855 C42.9518072,17.0698795 41.9542169,14.2433735 40.6795181,11.5831325 C39.626506,9.36626506 38.4072289,7.0939759 36.9108434,5.15421687 C35.8024096,3.71325301 34.4722892,2.16144578 32.9204819,1.21927711 C32.5879518,0.997590361 32.2554217,0.831325301 31.8674699,0.665060241 C31.6457831,0.554216867 31.3686747,0.498795181 31.146988,0.387951807 C30.8698795,0.33253012 30.5373494,0.277108434 30.260241,0.221686747 C29.8722892,0.16626506 29.4843373,0.221686747 29.1518072,0.221686747 C27.3228916,0.387951807 25.4385542,1.10843373 23.7759036,1.88433735 C21.5590361,2.9373494 19.3975904,4.32289157 17.4578313,5.81927711 C15.0746988,7.59277108 12.8578313,9.58795181 10.8626506,11.7493976 C8.81204819,13.9108434 6.87228916,16.1831325 5.20963855,18.6216867 C3.7686747,20.6722892 2.4939759,22.8337349 1.49638554,25.1060241 C1.10843373,26.0481928 0.720481928,26.9903614 0.498795181,27.9879518 C0.277108434,28.8192771 0.110843373,29.6506024 0.110843373,30.5373494 C0.110843373,30.9807229 0.110843373,31.4240964 0.16626506,31.8674699 C0.16626506,31.9228916 0.16626506,32.0337349 0.221686747,32.0891566 C0.33253012,32.5879518 0.498795181,33.0313253 0.720481928,33.4746988 C0.886746988,33.7518072 0.997590361,34.0289157 1.21927711,34.2506024 C2.27228916,35.746988 3.82409639,37.0771084 5.32048193,38.0746988 C7.37108434,39.460241 9.64337349,40.6240964 11.9156627,41.5662651 C14.6313253,42.7301205 17.513253,43.6168675 20.339759,44.3373494 C23.2216867,45.0578313 26.1590361,45.5566265 29.0963855,45.8337349 C31.5349398,46.0554217 34.0843373,46.0554217 36.5783133,45.7783133 C38.4072289,45.5566265 40.4024096,45.1686747 42.0096386,44.2819277 C42.286747,44.1710843 42.5084337,44.0048193 42.7301205,43.8385542 C43.6168675,43.2843373 44.226506,42.3975904 44.6698795,41.4554217 C45.0578313,40.6795181 45.2795181,39.8481928 45.5012048,39.0168675 C45.7228916,38.0192771 45.8891566,37.0216867 45.9445783,35.9686747 C46.1108434,33.4746988 46,30.9807229 45.6674699,28.486747 C45.2240964,25.660241 44.6144578,22.7228916 43.7831325,19.8963855 Z" id="Shape" fill="#EA2B16" fill-rule="nonzero"></path>
                    <path d="M24.2192771,6.09638554 C24.3855422,5.81927711 24.5518072,5.54216867 24.773494,5.32048193 C24.8289157,5.26506024 24.8843373,5.26506024 24.939759,5.20963855 C24.9951807,5.15421687 25.0506024,5.15421687 25.0506024,5.15421687 C25.1060241,5.15421687 25.1060241,5.09879518 25.1614458,5.09879518 C25.2168675,5.09879518 25.2722892,5.09879518 25.3831325,5.04337349 C25.7156627,5.04337349 26.0481928,5.09879518 26.3253012,5.20963855 C26.713253,5.32048193 27.1012048,5.48674699 27.4891566,5.70843373 C27.9325301,5.93012048 28.3759036,6.20722892 28.7638554,6.53975904 C29.1518072,6.87228916 29.539759,7.20481928 29.8722892,7.5373494 C30.1493976,7.86987952 30.426506,8.14698795 30.6481928,8.53493976 C30.7590361,8.70120482 30.8144578,8.81204819 30.8698795,8.97831325 C30.9253012,9.08915663 30.9807229,9.25542169 30.9807229,9.42168675 C31.0361446,9.58795181 31.0361446,9.75421687 30.9253012,9.92048193 C30.9253012,9.97590361 30.8698795,10.0313253 30.8698795,10.0313253 C30.7590361,10.3084337 30.4819277,10.5855422 30.260241,10.7518072 C29.9277108,11.0289157 29.5951807,11.3060241 29.2626506,11.5277108 C28.8192771,11.8048193 28.3759036,12.026506 27.9325301,12.1927711 C27.7662651,12.2481928 27.6554217,12.3036145 27.4891566,12.3590361 C28.2650602,12.8578313 28.8746988,13.5783133 29.2072289,14.5204819 C30.2048193,16.9590361 29.0409639,19.7301205 26.6024096,20.7831325 C24.1638554,21.7807229 21.3927711,20.6168675 20.339759,18.1783133 C19.9518072,17.2361446 19.8963855,16.2939759 20.0626506,15.3518072 C20.0072289,15.3518072 19.9518072,15.4072289 19.8963855,15.4072289 C19.453012,15.573494 18.9542169,15.739759 18.4554217,15.8506024 C18.0674699,15.9614458 17.6240964,16.0168675 17.1807229,16.0168675 C16.8481928,16.0168675 16.5156627,16.0168675 16.2385542,15.9060241 C16.1831325,15.9060241 16.1277108,15.8506024 16.0722892,15.8506024 C16.0168675,15.7951807 15.9060241,15.7951807 15.8506024,15.6843373 C15.8506024,15.6843373 15.8506024,15.6843373 15.7951807,15.6289157 C15.739759,15.573494 15.6843373,15.5180723 15.6289157,15.4626506 C15.573494,15.3518072 15.4626506,15.1855422 15.4072289,15.0746988 C15.3518072,14.9084337 15.2963855,14.7421687 15.2409639,14.5759036 C15.1301205,14.1879518 15.1301205,13.7445783 15.0746988,13.3012048 C15.0746988,12.8024096 15.0746988,12.3036145 15.1855422,11.8048193 C15.2409639,11.3060241 15.3518072,10.8072289 15.5180723,10.3084337 C15.6289157,9.92048193 15.7951807,9.53253012 16.0168675,9.14457831 C16.1831325,8.86746988 16.3493976,8.59036145 16.5710843,8.3686747 C16.626506,8.31325301 16.6819277,8.31325301 16.7373494,8.25783133 C16.7927711,8.20240964 16.8481928,8.20240964 16.8481928,8.20240964 C16.9036145,8.20240964 16.9036145,8.14698795 16.9590361,8.14698795 C17.0144578,8.14698795 17.0698795,8.14698795 17.1807229,8.09156627 C17.513253,8.09156627 17.8457831,8.14698795 18.1228916,8.25783133 C26.0481928,10.7518072 20.339759,13.3012048 24.2192771,6.09638554 Z M24.6072289,30.0385542 C24.6626506,30.2048193 22.5012048,26.7686747 23.1108434,23.1108434 C23.1108434,23.1108434 23.1108434,23.0554217 23.1108434,23.0554217 C23.1108434,23 23.1662651,22.8337349 23.1662651,22.8891566 C21.3373494,26.8795181 18.0120482,28.8192771 16.2939759,29.9831325 C16.0168675,30.1493976 16.0168675,30.426506 16.0168675,30.4819277 C16.4048193,32.2 19.9518072,33.5301205 22.0024096,34.1951807 C22.1686747,34.2506024 19.286747,32.9204819 18.3445783,32.2554217 C17.8457831,31.9228916 18.0674699,31.8120482 18.7325301,31.9783133 C19.8409639,32.2554217 20.6168675,32.6433735 21.6144578,33.1421687 C22.5012048,33.5855422 23.7204819,34.0289157 26.3807229,34.4168675 C26.4915663,34.4168675 25.3277108,34.4722892 24.1638554,34.3060241 C24.1084337,34.3060241 24.1084337,34.3614458 24.2192771,34.5277108 C24.2192771,34.5277108 24.2746988,34.5831325 24.2746988,34.5831325 C25.9927711,37.2433735 26.546988,40.0698795 25.826506,43.173494 C25.7156627,43.5614458 25.7156627,43.7831325 25.8819277,43.5614458 C26.8795181,42.2313253 27.6,41.1228916 28.0987952,40.1253012 C28.2096386,39.9036145 28.3204819,39.6819277 28.3759036,39.5156627 C28.486747,39.2939759 28.5421687,39.0168675 28.653012,38.7951807 C28.7084337,38.6289157 28.7638554,38.5180723 28.7638554,38.3518072 C28.7638554,38.2409639 28.8192771,38.1301205 28.8192771,38.0746988 C28.8192771,38.0192771 28.8192771,37.9638554 28.8192771,37.9084337 C28.8192771,37.853012 28.8192771,37.7421687 28.8192771,37.6313253 C28.8192771,37.4096386 26.0481928,32.8096386 28.0433735,35.8578313 C28.5421687,36.6337349 29.6506024,37.9638554 30.3710843,38.739759 C32.8650602,41.3445783 37.686747,36.7445783 39.626506,35.0819277 C39.6819277,35.026506 39.7373494,34.9710843 39.7927711,34.9156627 C40.2361446,34.5277108 40.6240964,33.8626506 40.6240964,33.0313253 C40.6240964,32.8650602 40.5686747,32.5879518 40.4578313,32.3108434 C40.2915663,31.8674699 40.0698795,31.3686747 39.7927711,30.8698795 C39.5710843,30.426506 39.3493976,29.9831325 39.1277108,29.5951807 C37.2433735,26.3807229 33.8072289,23.9421687 30.4819277,22.5566265 C30.3710843,22.5012048 30.260241,22.5012048 30.260241,22.5012048 C30.0939759,22.6120482 31.2024096,23.1662651 32.0891566,23.7759036 C33.1975904,24.5518072 33.0313253,24.4963855 32.3108434,24.8289157 C32.0337349,24.939759 31.8120482,25.1060241 31.5903614,25.2168675 C31.2024096,25.4385542 31.2578313,25.3831325 31.313253,25.8819277 C31.3686747,26.3253012 31.5349398,27.1012048 31.5349398,28.0433735 C31.5349398,28.1542169 31.5349398,28.486747 31.7012048,28.3759036 C31.7566265,28.3759036 31.7566265,28.3204819 31.8120482,28.3204819 C32.2,28.0987952 32.5325301,28.2650602 32.6987952,28.486747 C33.0313253,28.9301205 33.1975904,29.2072289 33.3084337,29.3180723 C33.5301205,29.5951807 33.8072289,29.9831325 34.1951807,29.7060241 C34.7493976,29.3180723 35.3036145,28.9301205 35.3036145,28.9301205 C35.6915663,28.653012 36.1349398,28.9855422 36.1903614,29.0963855 C37.2433735,30.6481928 37.2433735,30.5373494 37.2433735,30.6481928 C37.5204819,31.0361446 37.2433735,31.3686747 37.0771084,31.5349398 C36.6337349,31.8674699 37.0771084,31.5349398 36.0240964,32.3108434 C35.913253,32.3662651 35.6915663,32.5879518 35.8024096,32.9204819 C35.8024096,32.9759036 35.8578313,33.0313253 35.9686747,33.1975904 C36.1349398,33.4192771 36.3012048,33.6963855 36.4674699,33.9180723 C36.8,34.3614458 36.8554217,34.7493976 36.3012048,35.1373494 C35.9686747,35.3590361 35.2481928,35.8578313 34.9156627,36.0795181 C34.6385542,36.2457831 34.3060241,36.2457831 34.0843373,35.9686747 C34.0843373,35.913253 34.0289157,35.913253 34.0289157,35.913253 C33.7518072,35.5253012 33.4746988,35.1373494 33.253012,34.8048193 C33.086747,34.5831325 32.8096386,34.5831325 32.5879518,34.6939759 C32.3662651,34.8048193 31.9228916,35.1373494 31.7012048,35.3036145 C31.2578313,35.6361446 30.9253012,35.746988 30.5927711,35.3590361 C30.426506,35.1927711 29.4843373,33.8626506 29.4289157,33.6409639 C29.373494,33.4192771 29.4289157,33.1421687 29.8168675,32.8096386 C30.4819277,32.3662651 30.426506,32.3662651 30.4819277,32.3662651 C30.4819277,32.3662651 30.4819277,32.3108434 30.4819277,32.3108434 C30.426506,30.9807229 29.9277108,29.2626506 29.1518072,28.1542169 C29.0963855,28.0987952 28.8746988,27.7662651 28.8192771,27.6554217 C28.7638554,27.5445783 27.7662651,28.2096386 26.8795181,29.0963855 C26.2698795,29.7060241 25.6048193,30.5927711 25.6048193,30.5927711 C26.3253012,28.8746988 28.5975904,27.3783133 28.5975904,27.3783133 C28.5421687,27.3228916 28.5421687,27.3228916 28.486747,27.2674699 C28.0987952,26.8795181 27.3783133,26.6024096 26.8795181,26.3807229 C26.1590361,26.1036145 26.4361446,25.4939759 26.9349398,25.4939759 C27.0457831,25.4939759 27.1012048,25.5493976 27.2120482,25.5493976 C28.0987952,26.0481928 30.3710843,28.1542169 30.6481928,31.9783133 C30.7036145,32.6987952 30.8144578,32.5879518 30.9253012,32.1445783 C30.9253012,32.0891566 30.9253012,32.0337349 30.9807229,31.9783133 C31.0915663,31.4240964 31.2024096,30.8144578 31.2024096,30.260241 C31.2578313,29.4289157 31.2578313,28.5421687 31.146988,27.7108434 C31.0915663,26.8795181 30.9253012,25.9927711 30.7036145,25.1614458 C30.5373494,24.4963855 30.3156627,23.7759036 29.9831325,23.1108434 C28.8192771,20.7831325 26.4361446,20.5614458 24.939759,21.5590361 C22.5012048,23.0554217 23.7759036,27.9325301 24.6072289,30.0385542 Z" id="Shape" fill="#FFFFFF"></path>
                    <path d="M61.3518072,23.2216867 L66.5060241,23.2216867 C71.1060241,23.2216867 70.9951807,29.8168675 66.5614458,29.8168675 L57.860241,29.8168675 C55.9759036,29.8168675 54.313253,28.4313253 54.313253,26.4915663 L54.313253,7.81445783 C54.313253,2.9373494 61.3518072,2.77108434 61.3518072,7.9253012 L61.3518072,23.2216867 Z M78.4771084,10.973494 L78.4771084,13.7445783 L83.0771084,13.7445783 C87.6216867,13.7445783 87.5108434,20.3951807 83.0771084,20.3951807 L78.4771084,20.3951807 L78.4771084,23.2771084 L83.4650602,23.2771084 C88.286747,23.2771084 88.1759036,29.8722892 83.4650602,29.8722892 L75.0409639,29.8722892 C72.9349398,29.8722892 71.4385542,28.486747 71.4385542,26.3807229 L71.4385542,7.86987952 C71.4385542,5.8746988 72.8240964,4.32289157 74.8192771,4.32289157 L83.4096386,4.32289157 C87.8433735,4.32289157 87.9542169,10.9180723 83.4096386,10.9180723 L78.4771084,10.9180723 L78.4771084,10.973494 Z M97.2650602,12.4144578 L103.583133,5.59759036 C107.13012,1.77349398 112.561446,6.65060241 108.737349,10.3084337 L102.807229,16.2939759 L109.901205,23.9975904 C113.392771,27.8216867 108.016867,32.6987952 104.137349,28.2650602 L97.2650602,20.5614458 L97.2650602,26.3253012 C97.2650602,31.146988 90.226506,31.313253 90.226506,26.3807229 L90.226506,7.75903614 C90.226506,3.04819277 97.2650602,2.71566265 97.2650602,7.86987952 L97.2650602,12.4144578 Z M120.985542,12.4144578 L127.303614,5.59759036 C130.850602,1.77349398 136.281928,6.65060241 132.457831,10.3084337 L126.527711,16.2939759 L133.621687,23.9975904 C137.057831,27.8216867 131.792771,32.8096386 127.857831,28.2650602 L120.985542,20.5614458 L120.985542,26.3253012 C120.985542,31.146988 113.946988,31.313253 113.946988,26.3807229 L113.946988,7.75903614 C113.946988,3.04819277 120.985542,2.71566265 120.985542,7.86987952 L120.985542,12.4144578 Z M137.279518,7.81445783 C137.279518,2.88192771 144.318072,2.82650602 144.318072,7.81445783 L144.318072,26.3253012 C144.318072,31.4240964 137.279518,31.313253 137.279518,26.3807229 L137.279518,7.81445783 Z" id="Shape" fill="#EA2B16"></path>
                    <path d="M54.313253,40.8457831 L54.313253,35.5253012 C54.313253,35.2481928 54.3686747,35.026506 54.4795181,34.860241 C54.5903614,34.6939759 54.7566265,34.6385542 54.9783133,34.6385542 C55.2554217,34.6385542 55.4216867,34.6939759 55.5879518,34.860241 C55.7542169,34.9710843 55.8096386,35.1927711 55.8096386,35.4144578 L55.8096386,38.739759 L58.6915663,35.1373494 C58.8024096,34.9710843 58.913253,34.860241 59.0240964,34.7493976 C59.1349398,34.6385542 59.3012048,34.6385542 59.4674699,34.6385542 C59.6891566,34.6385542 59.9108434,34.6939759 60.0216867,34.860241 C60.1879518,35.026506 60.2433735,35.2481928 60.2433735,35.4698795 L60.2433735,40.7903614 C60.2433735,41.0120482 60.1879518,41.2337349 60.0216867,41.4 C59.9108434,41.5662651 59.6891566,41.6216867 59.4120482,41.6216867 C59.1903614,41.6216867 58.9686747,41.5662651 58.8578313,41.4 C58.746988,41.2337349 58.6915663,41.0674699 58.6915663,40.8457831 L58.6915663,37.5759036 L55.8096386,41.1783133 C55.6433735,41.3445783 55.5325301,41.4554217 55.4216867,41.5108434 C55.3108434,41.5662651 55.1445783,41.6216867 55.0337349,41.6216867 C54.8120482,41.6216867 54.6457831,41.5662651 54.4795181,41.4 C54.3686747,41.1783133 54.313253,41.0120482 54.313253,40.8457831 Z M61.9060241,35.4144578 C61.9060241,35.1373494 61.9614458,34.9156627 62.1277108,34.8048193 C62.2939759,34.6939759 62.460241,34.5831325 62.6819277,34.5831325 C62.9036145,34.5831325 63.0698795,34.6385542 63.2361446,34.8048193 C63.4024096,34.9156627 63.4578313,35.1373494 63.4578313,35.4144578 L63.4578313,37.2987952 L66.3951807,37.2987952 L66.3951807,35.4144578 C66.3951807,35.1373494 66.4506024,34.9156627 66.6168675,34.8048193 C66.7831325,34.6939759 66.9493976,34.5831325 67.1710843,34.5831325 C67.3927711,34.5831325 67.6144578,34.6385542 67.7253012,34.8048193 C67.8915663,34.9156627 67.946988,35.1373494 67.946988,35.4698795 L67.946988,40.7903614 C67.946988,41.0120482 67.8915663,41.2337349 67.7253012,41.4 C67.6144578,41.5662651 67.3927711,41.6216867 67.1156627,41.6216867 C66.8939759,41.6216867 66.6722892,41.5662651 66.5614458,41.4 C66.4506024,41.2337349 66.3951807,41.0674699 66.3951807,40.8457831 L66.3951807,38.7951807 L63.4578313,38.7951807 L63.4578313,40.7903614 C63.4578313,41.0120482 63.4024096,41.2337349 63.2915663,41.4 C63.1807229,41.5662651 62.9590361,41.6216867 62.7373494,41.6771084 C62.460241,41.6771084 62.2385542,41.6216867 62.1277108,41.4554217 C62.0168675,41.2891566 61.9060241,41.1228916 61.9060241,40.8457831 L61.9060241,35.4144578 Z M70.4963855,40.7349398 L70.4963855,36.0795181 L69.6650602,36.0795181 C69.3879518,36.0795181 69.2216867,36.0240964 69.0554217,35.913253 C68.8891566,35.8024096 68.8337349,35.6361446 68.8337349,35.4144578 C68.8337349,34.9156627 69.1108434,34.6939759 69.6650602,34.6939759 L72.9903614,34.6939759 C73.5445783,34.6939759 73.8216867,34.9156627 73.8216867,35.4144578 C73.8216867,35.6361446 73.7662651,35.8024096 73.6,35.913253 C73.4337349,36.0240964 73.2674699,36.0795181 72.9903614,36.0795181 L72.0481928,36.0795181 L72.0481928,40.7349398 C72.0481928,41.0120482 71.9927711,41.2337349 71.826506,41.3445783 C71.660241,41.5108434 71.4939759,41.5662651 71.2722892,41.5662651 C71.0506024,41.5662651 70.8289157,41.5108434 70.7180723,41.3445783 C70.5518072,41.2337349 70.4963855,41.0120482 70.4963855,40.7349398 Z M74.7638554,37.4096386 L74.7638554,35.4144578 C74.7638554,35.1373494 74.8192771,34.9710843 74.9855422,34.8048193 C75.1518072,34.6939759 75.3180723,34.5831325 75.4843373,34.5831325 L77.9783133,34.5831325 C78.2,34.5831325 78.3662651,34.6385542 78.5325301,34.7493976 C78.6433735,34.860241 78.7542169,35.0819277 78.7542169,35.3036145 C78.7542169,35.5253012 78.6987952,35.6915663 78.5879518,35.8024096 C78.4771084,35.913253 78.3108434,36.0240964 78.0337349,36.0240964 L76.3710843,36.0240964 L76.3710843,37.2433735 L77.9228916,37.2433735 C78.1445783,37.2433735 78.3108434,37.2987952 78.4771084,37.4650602 C78.5879518,37.6313253 78.6987952,37.7975904 78.6987952,37.9638554 C78.6987952,38.1855422 78.6433735,38.3518072 78.4771084,38.4626506 C78.3662651,38.6289157 78.1445783,38.6843373 77.9228916,38.6843373 L76.3710843,38.6843373 L76.3710843,39.9590361 L78.0337349,39.9590361 C78.3108434,39.9590361 78.4771084,40.0144578 78.6433735,40.1807229 C78.7542169,40.2915663 78.8096386,40.4578313 78.8096386,40.6795181 C78.8096386,40.9012048 78.7542169,41.0674699 78.6433735,41.2337349 C78.5325301,41.4 78.3108434,41.4554217 78.0337349,41.4554217 L75.6506024,41.4554217 C75.373494,41.4554217 75.2072289,41.4 75.0409639,41.2337349 C74.8746988,41.0674699 74.8192771,40.9012048 74.8192771,40.6795181 L74.8192771,37.4096386 L74.7638554,37.4096386 Z M79.9180723,35.4144578 C79.9180723,35.2481928 79.973494,35.026506 80.139759,34.860241 C80.2506024,34.6939759 80.4722892,34.6385542 80.7493976,34.6385542 L82.5228916,34.6385542 C83.0216867,34.6385542 83.5204819,34.7493976 83.853012,34.9710843 C84.2409639,35.1927711 84.5180723,35.4698795 84.6843373,35.8024096 C84.8506024,36.1349398 84.9614458,36.5783133 84.9614458,37.0216867 C84.9614458,37.4650602 84.8506024,37.853012 84.6843373,38.1855422 C84.5180723,38.5180723 84.2409639,38.7951807 83.9084337,39.0168675 C83.5759036,39.2385542 83.1879518,39.2939759 82.7445783,39.2939759 L81.4698795,39.2939759 L81.4698795,40.7349398 C81.4698795,41.0120482 81.4144578,41.2337349 81.2481928,41.3445783 C81.0819277,41.5108434 80.9156627,41.5662651 80.6939759,41.5662651 C80.1951807,41.5662651 79.9180723,41.2337349 79.9180723,40.7349398 L79.9180723,35.4144578 Z M81.4698795,36.0240964 L81.4698795,37.9084337 L82.3566265,37.9084337 C82.6337349,37.9084337 82.8554217,37.7975904 83.0216867,37.6313253 C83.1879518,37.4650602 83.2987952,37.2433735 83.2987952,36.9662651 C83.2987952,36.6891566 83.1879518,36.4674699 83.0216867,36.2457831 C82.8554217,36.0795181 82.5783133,35.9686747 82.2457831,35.9686747 L81.4698795,35.9686747 L81.4698795,36.0240964 Z M86.0144578,35.4144578 C86.0144578,35.1373494 86.0698795,34.9156627 86.2361446,34.8048193 C86.4024096,34.6939759 86.5686747,34.5831325 86.7903614,34.5831325 C87.0120482,34.5831325 87.1783133,34.6385542 87.3445783,34.8048193 C87.5108434,34.9156627 87.5662651,35.1373494 87.5662651,35.4144578 L87.5662651,37.2987952 L90.5036145,37.2987952 L90.5036145,35.4144578 C90.5036145,35.1373494 90.5590361,34.9156627 90.7253012,34.8048193 C90.8915663,34.6939759 91.0578313,34.5831325 91.2795181,34.5831325 C91.5012048,34.5831325 91.7228916,34.6385542 91.8337349,34.8048193 C92,34.9156627 92.0554217,35.1373494 92.0554217,35.4698795 L92.0554217,40.7903614 C92.0554217,41.0120482 92,41.2337349 91.8337349,41.4 C91.7228916,41.5662651 91.5012048,41.6216867 91.2240964,41.6216867 C91.0024096,41.6216867 90.7807229,41.5662651 90.6698795,41.4 C90.5590361,41.2337349 90.5036145,41.0674699 90.5036145,40.8457831 L90.5036145,38.7951807 L87.5662651,38.7951807 L87.5662651,40.7903614 C87.5662651,41.0120482 87.5108434,41.2337349 87.4,41.4 C87.2891566,41.5662651 87.0674699,41.6216867 86.8457831,41.6771084 C86.5686747,41.6771084 86.346988,41.6216867 86.2361446,41.4554217 C86.1253012,41.2891566 86.0144578,41.1228916 86.0144578,40.8457831 L86.0144578,35.4144578 Z M93.4963855,37.4096386 L93.4963855,35.4144578 C93.4963855,35.1373494 93.5518072,34.9710843 93.7180723,34.8048193 C93.8843373,34.6939759 94.0506024,34.5831325 94.2168675,34.5831325 L96.7108434,34.5831325 C96.9325301,34.5831325 97.0987952,34.6385542 97.2650602,34.7493976 C97.3759036,34.860241 97.486747,35.0819277 97.486747,35.3036145 C97.486747,35.5253012 97.4313253,35.6915663 97.3204819,35.8024096 C97.2096386,35.913253 97.0433735,36.0240964 96.7662651,36.0240964 L95.1036145,36.0240964 L95.1036145,37.2433735 L96.6554217,37.2433735 C96.8771084,37.2433735 97.0987952,37.2987952 97.2096386,37.4650602 C97.3204819,37.6313253 97.4313253,37.7975904 97.4313253,37.9638554 C97.4313253,38.1855422 97.3759036,38.3518072 97.2096386,38.4626506 C97.0987952,38.6289157 96.8771084,38.6843373 96.6554217,38.6843373 L95.1036145,38.6843373 L95.1036145,39.9590361 L96.7662651,39.9590361 C97.0433735,39.9590361 97.2096386,40.0144578 97.3759036,40.1807229 C97.486747,40.2915663 97.5421687,40.4578313 97.5421687,40.6795181 C97.5421687,40.9012048 97.486747,41.0674699 97.3759036,41.2337349 C97.2650602,41.4 97.0433735,41.4554217 96.7662651,41.4554217 L94.3831325,41.4554217 C94.1060241,41.4554217 93.939759,41.4 93.773494,41.2337349 C93.6072289,41.0674699 93.5518072,40.9012048 93.5518072,40.6795181 L93.5518072,37.4096386 L93.4963855,37.4096386 Z M99.7590361,40.7349398 L99.7590361,36.0795181 L98.9277108,36.0795181 C98.6506024,36.0795181 98.4843373,36.0240964 98.3180723,35.913253 C98.1518072,35.8024096 98.0963855,35.6361446 98.0963855,35.4144578 C98.0963855,34.9156627 98.373494,34.6939759 98.9277108,34.6939759 L102.253012,34.6939759 C102.807229,34.6939759 103.084337,34.9156627 103.084337,35.4144578 C103.084337,35.6361446 103.028916,35.8024096 102.862651,35.913253 C102.696386,36.0240964 102.53012,36.0795181 102.253012,36.0795181 L101.366265,36.0795181 L101.366265,40.7349398 C101.366265,41.0120482 101.310843,41.2337349 101.144578,41.3445783 C100.978313,41.5108434 100.812048,41.5662651 100.590361,41.5662651 C100.368675,41.5662651 100.146988,41.5108434 100.036145,41.3445783 C99.8144578,41.2337349 99.7590361,41.0120482 99.7590361,40.7349398 Z M106.79759,38.1855422 C107.019277,38.1855422 107.185542,38.2409639 107.296386,38.3518072 C107.407229,38.4626506 107.462651,38.6289157 107.462651,38.7951807 C107.462651,38.9614458 107.407229,39.1277108 107.296386,39.2385542 C107.185542,39.3493976 107.019277,39.4048193 106.79759,39.4048193 L104.636145,39.4048193 C104.414458,39.4048193 104.248193,39.3493976 104.081928,39.2385542 C103.971084,39.1277108 103.860241,38.9614458 103.860241,38.7951807 C103.860241,38.6289157 103.971084,38.4626506 104.081928,38.3518072 C104.192771,38.2409639 104.414458,38.1855422 104.636145,38.1855422 L106.79759,38.1855422 Z M108.293976,40.0698795 L109.956627,35.6361446 C110.233735,34.860241 110.621687,34.4722892 111.175904,34.4722892 C111.73012,34.4722892 112.118072,34.8048193 112.395181,35.5253012 L114.113253,40.1253012 C114.224096,40.4024096 114.224096,40.6795181 114.224096,40.8457831 C114.224096,41.0674699 114.168675,41.2337349 114.00241,41.3445783 C113.836145,41.4554217 113.66988,41.5108434 113.448193,41.5108434 C113.060241,41.5108434 112.783133,41.2891566 112.616867,40.7903614 L112.395181,40.1253012 L109.845783,40.1253012 L109.624096,40.7903614 C109.568675,41.0120482 109.457831,41.1783133 109.346988,41.3445783 C109.236145,41.4554217 109.014458,41.5108434 108.792771,41.5108434 C108.293976,41.5108434 108.072289,41.2891566 108.072289,40.8457831 C108.127711,40.6795181 108.183133,40.4024096 108.293976,40.0698795 Z M110.344578,38.6843373 L112.007229,38.6843373 L111.231325,36.1903614 L110.344578,38.6843373 Z M115.831325,34.5277108 C115.886747,34.5277108 115.942169,34.5277108 115.99759,34.5277108 L119.045783,34.5277108 C119.101205,34.5277108 119.101205,34.5277108 119.156627,34.5277108 C119.212048,34.5277108 119.212048,34.5277108 119.26747,34.5277108 C119.489157,34.5277108 119.655422,34.5831325 119.821687,34.7493976 C119.987952,34.860241 120.043373,35.0819277 120.043373,35.3590361 L120.043373,40.6795181 C120.043373,40.9012048 119.987952,41.1228916 119.877108,41.2891566 C119.766265,41.4554217 119.544578,41.5108434 119.322892,41.5662651 C119.045783,41.5662651 118.824096,41.5108434 118.713253,41.3445783 C118.60241,41.1783133 118.491566,41.0120482 118.491566,40.7349398 L118.491566,36.0795181 L116.551807,36.0795181 L116.551807,40.7349398 C116.551807,40.9566265 116.496386,41.1783133 116.385542,41.3445783 C116.274699,41.5108434 116.053012,41.5662651 115.831325,41.6216867 C115.554217,41.6216867 115.33253,41.5662651 115.221687,41.4 C115.110843,41.2337349 115,41.0674699 115,40.7903614 L115,35.8024096 C115,35.6361446 115,35.4698795 115.055422,35.2481928 C115.110843,35.026506 115.166265,34.9156627 115.221687,34.860241 C115.33253,34.5831325 115.554217,34.5277108 115.831325,34.5277108 C115.775904,34.5277108 115.775904,34.5277108 115.831325,34.5277108 Z M122.481928,40.7349398 L122.481928,36.0795181 L121.650602,36.0795181 C121.373494,36.0795181 121.207229,36.0240964 121.040964,35.913253 C120.874699,35.8024096 120.819277,35.6361446 120.819277,35.4144578 C120.819277,34.9156627 121.096386,34.6939759 121.650602,34.6939759 L124.975904,34.6939759 C125.53012,34.6939759 125.807229,34.9156627 125.807229,35.4144578 C125.807229,35.6361446 125.751807,35.8024096 125.585542,35.913253 C125.419277,36.0240964 125.253012,36.0795181 124.975904,36.0795181 L124.089157,36.0795181 L124.089157,40.7349398 C124.089157,41.0120482 124.033735,41.2337349 123.86747,41.3445783 C123.701205,41.5108434 123.53494,41.5662651 123.313253,41.5662651 C123.091566,41.5662651 122.86988,41.5108434 122.759036,41.3445783 C122.592771,41.2337349 122.481928,41.0120482 122.481928,40.7349398 Z M126.749398,37.4096386 L126.749398,35.4144578 C126.749398,35.1373494 126.804819,34.9710843 126.971084,34.8048193 C127.137349,34.6939759 127.303614,34.5831325 127.46988,34.5831325 L129.963855,34.5831325 C130.185542,34.5831325 130.351807,34.6385542 130.518072,34.7493976 C130.628916,34.860241 130.739759,35.0819277 130.739759,35.3036145 C130.739759,35.5253012 130.684337,35.6915663 130.573494,35.8024096 C130.462651,35.913253 130.296386,36.0240964 130.019277,36.0240964 L128.356627,36.0240964 L128.356627,37.2433735 L129.908434,37.2433735 C130.13012,37.2433735 130.351807,37.2987952 130.462651,37.4650602 C130.573494,37.6313253 130.684337,37.7975904 130.684337,37.9638554 C130.684337,38.1855422 130.628916,38.3518072 130.462651,38.4626506 C130.351807,38.6289157 130.13012,38.6843373 129.908434,38.6843373 L128.356627,38.6843373 L128.356627,39.9590361 L130.019277,39.9590361 C130.296386,39.9590361 130.462651,40.0144578 130.628916,40.1807229 C130.739759,40.2915663 130.795181,40.4578313 130.795181,40.6795181 C130.795181,40.9012048 130.739759,41.0674699 130.628916,41.2337349 C130.518072,41.4 130.296386,41.4554217 130.019277,41.4554217 L127.636145,41.4554217 C127.359036,41.4554217 127.192771,41.4 127.026506,41.2337349 C126.860241,41.0674699 126.804819,40.9012048 126.804819,40.6795181 L126.804819,37.4096386 L126.749398,37.4096386 Z M131.959036,35.4144578 C131.959036,35.1373494 132.014458,34.9710843 132.180723,34.8048193 C132.346988,34.6385542 132.513253,34.5831325 132.73494,34.5831325 C133.233735,34.5831325 133.510843,34.860241 133.510843,35.4144578 L133.510843,37.2987952 L135.727711,34.9156627 C135.949398,34.6939759 136.171084,34.5831325 136.448193,34.5831325 C136.66988,34.5831325 136.836145,34.6939759 137.00241,34.860241 C137.168675,35.026506 137.224096,35.1927711 137.224096,35.3590361 C137.224096,35.5807229 137.113253,35.8024096 136.891566,35.9686747 L135.062651,37.853012 L137.224096,40.2361446 C137.390361,40.4024096 137.445783,40.5686747 137.501205,40.7349398 C137.501205,41.0120482 137.445783,41.2337349 137.279518,41.4 C137.113253,41.5662651 136.946988,41.6216867 136.66988,41.6216867 C136.392771,41.6216867 136.171084,41.4554217 135.893976,41.1783133 L133.510843,38.5180723 L133.510843,40.7903614 C133.510843,41.0674699 133.455422,41.2891566 133.289157,41.4 C133.122892,41.5108434 132.901205,41.6216867 132.679518,41.6216867 C132.457831,41.6216867 132.291566,41.5108434 132.180723,41.4 C132.06988,41.2337349 131.959036,41.0674699 131.959036,40.8457831 L131.959036,35.4144578 Z M138.387952,40.0698795 L140.050602,35.6361446 C140.327711,34.860241 140.715663,34.4722892 141.26988,34.4722892 C141.824096,34.4722892 142.212048,34.8048193 142.489157,35.5253012 L144.207229,40.1253012 C144.318072,40.4024096 144.318072,40.6795181 144.318072,40.8457831 C144.318072,41.0674699 144.262651,41.2337349 144.096386,41.3445783 C143.93012,41.4554217 143.763855,41.5108434 143.542169,41.5108434 C143.154217,41.5108434 142.877108,41.2891566 142.710843,40.7903614 L142.544578,40.1253012 L139.995181,40.1253012 L139.773494,40.7903614 C139.718072,41.0120482 139.607229,41.1783133 139.496386,41.3445783 C139.385542,41.4554217 139.219277,41.5108434 138.99759,41.5108434 C138.498795,41.5108434 138.277108,41.2891566 138.277108,40.8457831 C138.166265,40.6795181 138.221687,40.4024096 138.387952,40.0698795 Z M140.383133,38.6843373 L142.045783,38.6843373 L141.26988,36.1903614 L140.383133,38.6843373 Z" id="Shape" fill="#EA2B16" fill-rule="nonzero"></path>
                </g>
            </g>
        </g>
    </g>
</svg>