
<svg width="15px" height="17px" viewBox="0 0 15 17" version="1.1" xmlns="http://www.w3.org/2000/svg" xmlns:xlink="http://www.w3.org/1999/xlink">
    <g id="UI_desktop" stroke="none" stroke-width="1" fill-rule="evenodd">
        <g id="UI_LEKKI" transform="translate(-368.000000, -1072.000000)" fill-rule="nonzero">
            <g id="ICON" transform="translate(48.000000, 1071.000000)">
                <path fill="#797979" d="M335,16.8333333 C335,17.2935706 334.626904,17.6666667 334.166667,17.6666667 C333.706429,17.6666667 333.333333,17.2935706 333.333333,16.8333333 L333.333333,15.1666667 C333.333333,13.7859548 332.214045,12.6666667 330.833333,12.6666667 L324.166667,12.6666667 C322.785955,12.6666667 321.666667,13.7859548 321.666667,15.1666667 L321.666667,16.8333333 C321.666667,17.2935706 321.293571,17.6666667 320.833333,17.6666667 C320.373096,17.6666667 320,17.2935706 320,16.8333333 L320,15.1666667 C320,12.8654802 321.86548,11 324.166667,11 L330.833333,11 C333.13452,11 335,12.8654802 335,15.1666667 L335,16.8333333 Z M327.5,9.33333333 C325.198814,9.33333333 323.333333,7.46785312 323.333333,5.16666667 C323.333333,2.86548021 325.198814,1 327.5,1 C329.801186,1 331.666667,2.86548021 331.666667,5.16666667 C331.666667,7.46785312 329.801186,9.33333333 327.5,9.33333333 Z M327.5,7.66666667 C328.880712,7.66666667 330,6.54737854 330,5.16666667 C330,3.78595479 328.880712,2.66666667 327.5,2.66666667 C326.119288,2.66666667 325,3.78595479 325,5.16666667 C325,6.54737854 326.119288,7.66666667 327.5,7.66666667 Z" id="Combined-Shape"></path>
            </g>
        </g>
    </g>
</svg>