<svg xmlns="http://www.w3.org/2000/svg" width="160" height="48" viewBox="0 0 160 48"><g fill="none"><rect width="160" height="48" fill="#2B2B2B" rx="6"/><g fill="#FFF"><path d="M32.436 22.559a6.653 6.653 0 0 1 3.193-5.59 6.876 6.876 0 0 0-5.408-2.904c-2.275-.238-4.481 1.352-5.64 1.352-1.182 0-2.968-1.329-4.89-1.29a7.208 7.208 0 0 0-6.06 3.673c-2.621 4.507-.667 11.132 1.844 14.775 1.255 1.784 2.723 3.777 4.644 3.707 1.88-.078 2.581-1.191 4.85-1.191 2.248 0 2.906 1.19 4.866 1.146 2.017-.033 3.287-1.792 4.5-3.593a14.717 14.717 0 0 0 2.057-4.163 6.437 6.437 0 0 1-3.956-5.922zm-3.701-10.89a6.53 6.53 0 0 0 1.51-4.7 6.732 6.732 0 0 0-4.346 2.235 6.216 6.216 0 0 0-1.55 4.525 5.568 5.568 0 0 0 4.386-2.06zm27.459 20.096H49.78l-1.54 4.518h-2.717l6.075-16.716h2.823l6.075 16.716h-2.763l-1.54-4.518zm-5.75-2.085h5.084l-2.506-7.333h-.07l-2.508 7.333zm23.172.51c0 3.787-2.04 6.22-5.12 6.22a4.165 4.165 0 0 1-3.86-2.132h-.058v6.037H62.06v-16.22h2.437v2.028h.047a4.358 4.358 0 0 1 3.906-2.155c3.113 0 5.166 2.445 5.166 6.222zm-2.589 0c0-2.467-1.283-4.09-3.242-4.09-1.924 0-3.218 1.657-3.218 4.09 0 2.456 1.294 4.1 3.218 4.1 1.959 0 3.242-1.61 3.242-4.1zm16.091 0c0 3.787-2.04 6.22-5.12 6.22a4.165 4.165 0 0 1-3.86-2.132h-.058v6.037h-2.518v-16.22H78v2.028h.046a4.358 4.358 0 0 1 3.906-2.155c3.114 0 5.166 2.445 5.166 6.222zm-2.588 0c0-2.467-1.284-4.09-3.242-4.09-1.924 0-3.218 1.657-3.218 4.09 0 2.456 1.294 4.1 3.218 4.1 1.958 0 3.242-1.61 3.242-4.1zm11.512 1.436c.187 1.657 1.808 2.746 4.023 2.746 2.122 0 3.65-1.089 3.65-2.583 0-1.298-.922-2.075-3.102-2.607l-2.181-.522c-3.09-.742-4.524-2.177-4.524-4.507 0-2.884 2.53-4.865 6.122-4.865 3.556 0 5.993 1.981 6.075 4.865h-2.542c-.152-1.668-1.54-2.675-3.568-2.675-2.029 0-3.417 1.019-3.417 2.502 0 1.182.887 1.877 3.055 2.41l1.854.452c3.453.81 4.887 2.188 4.887 4.634 0 3.127-2.508 5.086-6.496 5.086-3.731 0-6.25-1.913-6.414-4.937h2.578zM111.81 21.21v2.885h2.332v1.98h-2.332v6.72c0 1.043.467 1.53 1.492 1.53a7.92 7.92 0 0 0 .829-.058v1.97a6.96 6.96 0 0 1-1.4.115c-2.483 0-3.451-.927-3.451-3.29v-6.986h-1.784v-1.981h1.783V21.21h2.53zm3.684 8.979c0-3.835 2.273-6.244 5.818-6.244 3.557 0 5.82 2.41 5.82 6.244 0 3.845-2.251 6.244-5.82 6.244-3.568 0-5.818-2.399-5.818-6.244zm9.072 0c0-2.63-1.214-4.183-3.254-4.183s-3.253 1.564-3.253 4.183c0 2.641 1.212 4.182 3.253 4.182 2.04 0 3.254-1.54 3.254-4.182zm4.642-6.094h2.401v2.074h.059a2.923 2.923 0 0 1 2.95-2.202c.29-.001.58.03.863.093v2.34a3.542 3.542 0 0 0-1.131-.15 2.546 2.546 0 0 0-1.962.802 2.51 2.51 0 0 0-.662 2.001v7.23h-2.518V24.095zm17.883 8.608c-.338 2.212-2.507 3.73-5.282 3.73-3.569 0-5.784-2.375-5.784-6.186 0-3.823 2.227-6.302 5.678-6.302 3.394 0 5.529 2.316 5.529 6.011v.857h-8.665v.152a3.16 3.16 0 0 0 .866 2.466 3.206 3.206 0 0 0 2.434.986 2.777 2.777 0 0 0 2.833-1.714h2.391zm-8.512-3.638h6.133a2.92 2.92 0 0 0-.824-2.2 2.96 2.96 0 0 0-2.185-.893 3.116 3.116 0 0 0-2.21.9 3.075 3.075 0 0 0-.914 2.193zM48.644 10.338h1.08c.377.046.756-.065 1.045-.306.29-.24.463-.59.48-.962 0-.734-.561-1.208-1.512-1.208a1.458 1.458 0 0 0-1.083.284 1.413 1.413 0 0 0-.548.962h-1.187a2.48 2.48 0 0 1 .914-1.775 2.562 2.562 0 0 1 1.942-.552c1.591 0 2.712.877 2.712 2.14a1.854 1.854 0 0 1-1.468 1.82v.093c1.035.045 1.838.905 1.797 1.924a2.647 2.647 0 0 1-1.004 1.807 2.73 2.73 0 0 1-2.014.558 2.718 2.718 0 0 1-2.026-.543 2.634 2.634 0 0 1-1.01-1.811h1.205c.073.761.783 1.252 1.83 1.252 1.048 0 1.732-.552 1.732-1.329 0-.788-.644-1.274-1.77-1.274h-1.115v-1.08zm5.542 2.894c0-1.08.818-1.703 2.268-1.792l1.653-.094v-.518c0-.634-.425-.992-1.25-.992-.671 0-1.136.243-1.27.667H54.42c.123-1.031 1.11-1.692 2.494-1.692 1.529 0 2.391.749 2.391 2.017v4.102h-1.16v-.843h-.095a2.062 2.062 0 0 1-1.832.942 1.862 1.862 0 0 1-1.422-.454 1.801 1.801 0 0 1-.611-1.343zm3.92-.513v-.502l-1.49.094c-.84.056-1.22.337-1.22.866 0 .54.476.855 1.131.855.388.039.775-.08 1.072-.327a1.41 1.41 0 0 0 .508-.986zm4.395-2.795v5.007h-1.204V8.927h4.017v.997zm10.109 2.002c0 1.907-.981 3.103-2.52 3.103a1.996 1.996 0 0 1-1.878-1.008h-.095v2.905h-1.204v-8h1.159v.993h.09a2.125 2.125 0 0 1 1.915-1.092c1.552 0 2.532 1.19 2.532 3.099zm-1.239 0c0-1.268-.61-2.035-1.63-2.035-1.013 0-1.647.783-1.647 2.04 0 1.251.634 2.035 1.642 2.035 1.025 0 1.635-.767 1.635-2.04zm2.842 5.155v-1.02c.13.016.261.023.392.022a1.04 1.04 0 0 0 1.104-.838l.09-.293-2.208-6.026h1.31l1.53 4.77h.095l1.524-4.77h1.277l-2.274 6.252c-.521 1.461-1.098 1.93-2.342 1.93-.1 0-.386-.011-.498-.027zm6.052-3.854h1.198c.118.529.622.805 1.327.805.802 0 1.294-.348 1.294-.888 0-.579-.442-.855-1.294-.855h-.913v-.92h.897c.728 0 1.098-.276 1.098-.778 0-.44-.358-.777-1.098-.777-.673 0-1.165.281-1.243.755h-1.16c.18-1.133 1.249-1.915 2.403-1.758 1.45 0 2.28.645 2.28 1.66a1.237 1.237 0 0 1-.964 1.228v.094a1.354 1.354 0 0 1 1.194 1.35c0 1.142-.987 1.897-2.494 1.897-1.332 0-2.414-.6-2.525-1.813zm6.752 1.703V8.928h1.194v4.129h.095l2.81-4.13h1.194v6.005h-1.194V10.78h-.089l-2.816 4.152zm11.867-5.006h-1.921v5.007h-1.206V9.924h-1.92v-.997h5.047zm6.484 3.386c-.338 1.132-1.452 1.863-2.644 1.736a2.791 2.791 0 0 1-2.138-.907 2.699 2.699 0 0 1-.68-2.192 2.74 2.74 0 0 1 .679-2.2 2.833 2.833 0 0 1 2.133-.936c1.698 0 2.723 1.14 2.723 3.026v.414h-4.307v.066a1.57 1.57 0 0 0 .425 1.214c.31.328.745.511 1.2.506a1.468 1.468 0 0 0 1.449-.728h1.16zm-4.234-1.936h3.08a1.435 1.435 0 0 0-.401-1.104 1.483 1.483 0 0 0-1.1-.451 1.571 1.571 0 0 0-1.123.45 1.522 1.522 0 0 0-.456 1.105zm9.338-2.448h2.75c1.193 0 1.893.595 1.893 1.527a1.295 1.295 0 0 1-1.03 1.268v.094a1.38 1.38 0 0 1 1.304 1.384c0 1.048-.8 1.731-2.14 1.731h-2.777V8.926zm1.193.91v1.555h1.193c.728 0 1.076-.276 1.076-.784 0-.468-.303-.771-.942-.771h-1.327zm0 2.426v1.759h1.427c.712 0 1.093-.31 1.093-.877 0-.601-.431-.882-1.243-.882h-1.277z"/></g></g></svg>