<svg xmlns="http://www.w3.org/2000/svg" width="71" height="60" viewBox="0 0 71 60"><path fill="#EA2B16" d="M64.844 4.13c-6.783-5.898-17.105-5.456-23.74 1.18l-6.489 6.488-5.455-5.604C22.524-.44 11.612-.44 4.977 6.194c-6.636 6.636-6.636 17.548 0 24.183L32.55 57.952c2.064 2.064 5.308 2.064 7.373 0 1.18-1.18 1.77-2.212 1.77-3.982v-.147c1.769 0 2.949-.737 3.98-1.77 1.033-1.032 1.475-2.359 1.475-3.686 1.327 0 2.802-.59 3.687-1.475 1.18-1.032 1.77-2.211 1.77-3.98v-.148c1.621 0 2.8-.59 3.98-1.77 1.033-1.032 1.623-2.507 1.475-3.981l7.52-8.11c6.93-6.488 6.93-17.99-.737-24.773zM54.67 39.077c-1.328 1.327-2.655 1.18-3.54.295l-9.584-9.29c-.59-.59-1.475-.59-2.064 0-.59.59-.59 1.475 0 2.065l9.584 9.584c.148.148.295.295.443.295.442 1.033.147 1.917-.738 2.802a2.314 2.314 0 0 1-3.244 0l-9.584-9.585c-.59-.59-1.475-.59-2.065 0-.59.59-.59 1.475 0 2.065l9.585 9.584c.885.885.885 2.36 0 3.245-1.18 1.18-2.507 1.18-3.392.294l-9.584-9.584c-.59-.59-1.475-.59-2.065 0-.59.59-.59 1.474 0 2.064l9.585 9.585c.885.885 1.032 2.212-.295 3.391a2.314 2.314 0 0 1-3.244 0L7.041 28.313c-5.603-5.603-5.603-14.45 0-20.054 5.603-5.604 14.45-5.604 20.054 0l5.604 5.603-11.355 11.65c-.884 1.031-1.327 2.359-1.18 3.833.59 3.687 5.162 4.866 7.521 2.212l7.815-7.815c1.327-1.475 2.802-1.032 6.046-.885l12.976 12.976a2.194 2.194 0 0 1 .148 3.244zm8.994-11.944l-6.635 7.078c-.59-.59-10.47-10.617-11.06-11.207h.885c.885 0 1.475-.59 1.475-1.474 0-.885-.59-1.475-1.475-1.475-8.7-.295-11.059-1.032-13.418 1.622l-7.815 7.816c-.885.884-2.36.442-2.507-.738-.148-.442 0-.884.295-1.18l12.239-12.533 7.52-7.52c5.456-5.456 14.156-5.899 19.76-1.033 6.192 5.309 6.487 14.746.736 20.644z"/></svg>