<svg width="145" height="46" viewBox="0 0 145 46" xmlns="http://www.w3.org/2000/svg"><title>2DD854F8-F781-431B-AE00-57434AABC813</title><g fill="none" fill-rule="evenodd"><path d="M43.783 19.896c-.831-2.826-1.829-5.653-3.103-8.313-1.053-2.217-2.273-4.489-3.77-6.429-1.108-1.44-2.438-2.993-3.99-3.935a6.318 6.318 0 0 0-1.053-.554c-.221-.11-.498-.166-.72-.277-.277-.055-.61-.11-.887-.166-.388-.056-.776 0-1.108 0-1.83.166-3.713.886-5.376 1.662-2.217 1.053-4.378 2.439-6.318 3.935a47.962 47.962 0 0 0-6.595 5.93c-2.051 2.162-3.99 4.434-5.653 6.873-1.441 2.05-2.716 4.212-3.714 6.484-.388.942-.776 1.884-.997 2.882-.222.831-.388 1.663-.388 2.55 0 .443 0 .886.055 1.33 0 .055 0 .166.056.221.11.499.277.942.498 1.386.167.277.278.554.5.776 1.052 1.496 2.604 2.826 4.1 3.824 2.051 1.385 4.323 2.55 6.596 3.491 2.715 1.164 5.597 2.05 8.424 2.771 2.882.72 5.819 1.22 8.756 1.497 2.439.221 4.988.221 7.482-.056 1.83-.221 3.824-.61 5.432-1.496.277-.11.498-.277.72-.443.887-.555 1.497-1.441 1.94-2.384.388-.775.61-1.607.831-2.438.222-.998.388-1.995.444-3.048.166-2.494.055-4.988-.278-7.482-.443-2.827-1.053-5.764-1.884-8.59z" fill="#EA2B16" fill-rule="nonzero"/><path d="M24.22 6.096c.166-.277.332-.554.553-.776.056-.055.111-.055.167-.11.055-.056.11-.056.11-.056.056 0 .056-.055.111-.055.056 0 .111 0 .222-.056.333 0 .665.056.942.167.388.11.776.277 1.164.498.444.222.887.5 1.275.832.388.332.776.665 1.108.997.277.333.555.61.776.998.111.166.166.277.222.443.055.111.11.277.11.444a.539.539 0 0 1-.055.498c0 .056-.055.111-.055.111-.111.277-.388.555-.61.72-.332.278-.665.555-.997.777a7.45 7.45 0 0 1-1.33.665c-.167.055-.278.11-.444.166a4.195 4.195 0 0 1 1.718 2.161c.998 2.439-.166 5.21-2.605 6.263-2.438.998-5.21-.166-6.262-2.605-.388-.942-.444-1.884-.277-2.826-.056 0-.111.055-.167.055-.443.166-.942.333-1.44.444-.389.11-.832.166-1.275.166-.333 0-.665 0-.942-.111-.056 0-.111-.055-.167-.055-.055-.056-.166-.056-.221-.167l-.056-.055-.166-.166c-.056-.111-.166-.277-.222-.388l-.166-.5c-.11-.387-.11-.83-.166-1.274 0-.499 0-.997.11-1.496.056-.499.167-.998.333-1.497.11-.388.277-.775.499-1.163.166-.278.332-.555.554-.776.056-.056.11-.056.166-.111.056-.056.111-.056.111-.056.056 0 .056-.055.111-.055s.11 0 .222-.055c.332 0 .665.055.942.166 7.925 2.494 2.217 5.043 6.096-2.162zm.387 23.943c.056.166-2.106-3.27-1.496-6.928v-.056c0-.055.055-.221.055-.166-1.829 3.99-5.154 5.93-6.872 7.094-.277.166-.277.444-.277.499.388 1.718 3.935 3.048 5.985 3.713.167.056-2.715-1.275-3.657-1.94-.5-.332-.278-.443.388-.277 1.108.277 1.884.665 2.881 1.164.887.444 2.106.887 4.767 1.275.11 0-1.053.055-2.217-.111-.056 0-.056.055.055.222l.056.055c1.718 2.66 2.272 5.487 1.552 8.59-.111.388-.111.61.055.388.998-1.33 1.718-2.438 2.217-3.436a5.4 5.4 0 0 0 .277-.61c.11-.221.166-.498.277-.72.055-.166.11-.277.11-.443 0-.111.056-.222.056-.277v-.167-.277c0-.221-2.77-4.821-.776-1.773.5.776 1.608 2.106 2.328 2.882 2.494 2.605 7.316-1.995 9.256-3.658l.166-.166a2.513 2.513 0 0 0 .831-1.885 2.17 2.17 0 0 0-.166-.72 10.837 10.837 0 0 0-.665-1.441c-.222-.443-.444-.887-.665-1.275-1.885-3.214-5.32-5.653-8.646-7.038-.11-.056-.222-.056-.222-.056-.166.111.942.665 1.83 1.275 1.108.776.941.72.22 1.053-.276.11-.498.277-.72.388-.388.222-.332.166-.277.665.056.443.222 1.22.222 2.161 0 .111 0 .444.166.333.056 0 .056-.056.111-.056a.653.653 0 0 1 .887.167c.332.443.499.72.61.831.221.277.498.665.886.388l1.109-.776c.388-.277.83.056.886.166 1.053 1.552 1.053 1.441 1.053 1.552.277.388 0 .72-.166.887-.443.332 0 0-1.053.776a.503.503 0 0 0-.222.61c0 .055.056.11.167.277.166.221.332.498.498.72.333.443.388.831-.166 1.22-.332.221-1.053.72-1.385.942-.277.166-.61.166-.832-.111 0-.056-.055-.056-.055-.056a44.72 44.72 0 0 1-.776-1.108c-.166-.222-.443-.222-.665-.111-.222.11-.665.443-.887.61-.443.332-.776.443-1.108.055-.166-.166-1.109-1.496-1.164-1.718-.056-.222 0-.499.388-.831.665-.444.61-.444.665-.444v-.055c-.055-1.33-.554-3.048-1.33-4.157a3.89 3.89 0 0 1-.333-.499c-.055-.11-1.053.555-1.94 1.441-.61.61-1.274 1.497-1.274 1.497.72-1.718 2.993-3.215 2.993-3.215l-.111-.11c-.388-.388-1.109-.666-1.607-.887-.721-.277-.444-.887.055-.887.11 0 .166.055.277.055.887.5 3.16 2.605 3.436 6.43.056.72.166.609.277.166 0-.056 0-.111.056-.167.11-.554.221-1.164.221-1.718.056-.831.056-1.718-.055-2.55a13.656 13.656 0 0 0-.443-2.549c-.167-.665-.388-1.385-.72-2.05-1.165-2.328-3.548-2.55-5.044-1.552-2.439 1.496-1.164 6.374-.333 8.48z" fill="#FFF"/><path d="M61.352 23.222h5.154c4.6 0 4.49 6.595.055 6.595h-8.7c-1.885 0-3.548-1.386-3.548-3.325V7.814c0-4.877 7.039-5.043 7.039.111v15.297zm17.125-12.249v2.772h4.6c4.545 0 4.434 6.65 0 6.65h-4.6v2.882h4.988c4.822 0 4.71 6.595 0 6.595h-8.424c-2.106 0-3.602-1.385-3.602-3.491V7.87c0-1.995 1.385-3.547 3.38-3.547h8.59c4.434 0 4.545 6.595 0 6.595h-4.932v.055zm18.788 1.441l6.318-6.816c3.547-3.825 8.978 1.053 5.154 4.71l-5.93 5.986 7.094 7.704c3.492 3.824-1.884 8.7-5.764 4.267l-6.872-7.704v5.764c0 4.822-7.038 4.988-7.038.056V7.759c0-4.71 7.038-5.043 7.038.11v4.545zm23.72 0l6.319-6.816c3.547-3.825 8.978 1.053 5.154 4.71l-5.93 5.986 7.094 7.704c3.436 3.824-1.83 8.812-5.764 4.267l-6.872-7.704v5.764c0 4.822-7.039 4.988-7.039.056V7.759c0-4.71 7.039-5.043 7.039.11v4.545zm16.295-4.6c0-4.932 7.038-4.987 7.038 0v18.511c0 5.1-7.038 4.988-7.038.056V7.814z" fill="#EA2B16"/><path d="M54.313 40.846v-5.32c0-.278.056-.5.167-.666.11-.166.277-.221.498-.221.277 0 .444.055.61.221.166.111.222.333.222.554v3.326l2.882-3.603c.11-.166.221-.277.332-.388.11-.11.277-.11.443-.11.222 0 .444.055.555.221.166.167.221.388.221.61v5.32c0 .222-.055.444-.221.61-.111.166-.333.222-.61.222-.222 0-.443-.056-.554-.222a.936.936 0 0 1-.166-.554v-3.27l-2.882 3.602c-.167.167-.277.277-.388.333-.111.055-.277.11-.388.11a.712.712 0 0 1-.554-.221c-.111-.222-.167-.388-.167-.554zm7.593-5.432c0-.277.055-.498.222-.61.166-.11.332-.22.554-.22.222 0 .388.055.554.22.166.112.222.333.222.61V37.3h2.937v-1.885c0-.277.056-.498.222-.61.166-.11.332-.22.554-.22.222 0 .443.055.554.22.167.112.222.333.222.666v5.32c0 .222-.055.444-.222.61-.11.166-.332.222-.61.222-.221 0-.443-.056-.554-.222a.936.936 0 0 1-.166-.554v-2.05h-2.937v1.994c0 .222-.056.444-.166.61-.111.166-.333.222-.555.277-.277 0-.498-.055-.61-.222-.11-.166-.221-.332-.221-.61v-5.43zm8.59 5.32V36.08h-.83c-.278 0-.444-.056-.61-.167-.167-.11-.222-.277-.222-.499 0-.498.277-.72.831-.72h3.325c.555 0 .832.222.832.72 0 .222-.056.388-.222.5-.166.11-.333.166-.61.166h-.942v4.655c0 .277-.055.499-.221.61a.712.712 0 0 1-.555.221c-.221 0-.443-.055-.554-.221-.166-.111-.222-.333-.222-.61zm4.268-3.324v-1.996c0-.277.055-.443.222-.61.166-.11.332-.22.498-.22h2.494c.222 0 .388.055.555.165.11.111.221.333.221.555 0 .221-.055.388-.166.498a.739.739 0 0 1-.554.222H76.37v1.22h1.552c.222 0 .388.055.554.221.111.166.222.333.222.499 0 .222-.056.388-.222.499-.11.166-.332.221-.554.221H76.37v1.275h1.663c.277 0 .443.055.61.222.11.11.166.277.166.499a.936.936 0 0 1-.167.554c-.11.166-.332.221-.61.221h-2.382c-.278 0-.444-.055-.61-.221a.712.712 0 0 1-.222-.554v-3.27h-.055zm5.154-1.996c0-.166.055-.387.222-.554.11-.166.332-.221.61-.221h1.773c.499 0 .997.11 1.33.332.388.222.665.499.831.831.167.333.277.776.277 1.22 0 .443-.11.831-.277 1.164-.166.332-.443.61-.776.83-.332.223-.72.278-1.163.278H81.47v1.44c0 .278-.056.5-.222.61a.712.712 0 0 1-.554.222c-.499 0-.776-.332-.776-.831v-5.32zm1.552.61v1.884h.887c.277 0 .498-.11.665-.277a.918.918 0 0 0 .277-.665c0-.277-.111-.499-.277-.72-.167-.166-.444-.277-.776-.277h-.776v.055zm4.544-.61c0-.277.056-.498.222-.61.166-.11.333-.22.554-.22.222 0 .388.055.555.22.166.112.221.333.221.61V37.3h2.938v-1.885c0-.277.055-.498.221-.61.167-.11.333-.22.555-.22.221 0 .443.055.554.22.166.112.221.333.221.666v5.32c0 .222-.055.444-.221.61-.111.166-.333.222-.61.222-.222 0-.443-.056-.554-.222a.936.936 0 0 1-.166-.554v-2.05h-2.938v1.994c0 .222-.055.444-.166.61-.11.166-.333.222-.554.277-.277 0-.499-.055-.61-.222-.11-.166-.222-.332-.222-.61v-5.43zm7.482 1.996v-1.996c0-.277.056-.443.222-.61.166-.11.333-.22.499-.22h2.494c.222 0 .388.055.554.165.11.111.222.333.222.555 0 .221-.056.388-.167.498a.739.739 0 0 1-.554.222h-1.662v1.22h1.551c.222 0 .444.055.555.221.11.166.221.333.221.499 0 .222-.055.388-.221.499-.111.166-.333.221-.555.221h-1.551v1.275h1.662c.277 0 .444.055.61.222.11.11.166.277.166.499a.936.936 0 0 1-.166.554c-.11.166-.333.221-.61.221h-2.383c-.277 0-.443-.055-.61-.221a.712.712 0 0 1-.221-.554v-3.27h-.056zm6.263 3.325V36.08h-.831c-.277 0-.444-.056-.61-.167-.166-.11-.222-.277-.222-.499 0-.498.277-.72.832-.72h3.325c.554 0 .831.222.831.72 0 .222-.055.388-.221.5-.167.11-.333.166-.61.166h-.887v4.655c0 .277-.055.499-.221.61a.712.712 0 0 1-.555.221c-.221 0-.443-.055-.554-.221-.222-.111-.277-.333-.277-.61zm7.039-2.55c.221 0 .388.056.498.167a.63.63 0 0 1 .167.443.63.63 0 0 1-.167.444c-.11.11-.277.166-.498.166h-2.162a.936.936 0 0 1-.554-.166c-.11-.111-.222-.278-.222-.444 0-.166.111-.332.222-.443.11-.111.332-.166.554-.166h2.162zm1.496 1.885l1.663-4.434c.277-.776.665-1.164 1.219-1.164s.942.333 1.22 1.053l1.717 4.6c.111.277.111.555.111.72 0 .222-.055.389-.222.5a.936.936 0 0 1-.554.166c-.388 0-.665-.222-.831-.72l-.222-.666h-2.55l-.22.665c-.056.222-.167.388-.278.555-.11.11-.333.166-.554.166-.499 0-.72-.222-.72-.665.055-.166.11-.444.221-.776zm2.05-1.386h1.663l-.776-2.494-.886 2.494zm5.487-4.156h3.436c.222 0 .388.055.555.221.166.111.221.333.221.61v5.32c0 .222-.055.444-.166.61-.11.166-.332.222-.554.277-.277 0-.499-.055-.61-.221-.11-.167-.221-.333-.221-.61V36.08h-1.94v4.655c0 .222-.056.443-.166.61-.111.166-.333.221-.555.277-.277 0-.498-.056-.61-.222-.11-.166-.221-.333-.221-.61v-4.988c0-.166 0-.332.055-.554.056-.221.111-.332.167-.388.11-.277.332-.332.61-.332-.056 0-.056 0 0 0zm6.65 6.207V36.08h-.83c-.278 0-.444-.056-.61-.167-.166-.11-.222-.277-.222-.499 0-.498.277-.72.832-.72h3.325c.554 0 .831.222.831.72 0 .222-.055.388-.221.5-.167.11-.333.166-.61.166h-.887v4.655c0 .277-.055.499-.222.61a.712.712 0 0 1-.554.221c-.221 0-.443-.055-.554-.221-.166-.111-.277-.333-.277-.61zm4.268-3.325v-1.996c0-.277.056-.443.222-.61.166-.11.333-.22.499-.22h2.494c.222 0 .388.055.554.165.11.111.222.333.222.555 0 .221-.056.388-.167.498a.739.739 0 0 1-.554.222h-1.662v1.22h1.551c.222 0 .444.055.555.221.11.166.221.333.221.499 0 .222-.055.388-.221.499-.111.166-.333.221-.555.221h-1.551v1.275h1.662c.277 0 .444.055.61.222.11.11.166.277.166.499a.936.936 0 0 1-.166.554c-.11.166-.333.221-.61.221h-2.383c-.277 0-.443-.055-.61-.221a.712.712 0 0 1-.221-.554v-3.27h-.056zm5.21-1.996c0-.277.055-.443.222-.61a.712.712 0 0 1 .554-.22c.499 0 .776.276.776.83V37.3l2.217-2.383c.221-.222.443-.333.72-.333.222 0 .388.111.554.277a.677.677 0 0 1 .222.499c0 .222-.11.443-.332.61l-1.83 1.884 2.162 2.383c.166.166.222.333.277.499 0 .277-.055.499-.221.665-.167.166-.333.222-.61.222-.277 0-.499-.167-.776-.444l-2.383-2.66v2.272c0 .277-.056.5-.222.61-.166.11-.388.222-.61.222a.702.702 0 0 1-.498-.222c-.111-.166-.222-.333-.222-.554v-5.432zm6.429 4.656l1.663-4.434c.277-.776.665-1.164 1.219-1.164s.942.333 1.22 1.053l1.717 4.6c.111.277.111.555.111.72 0 .222-.055.389-.222.5a.936.936 0 0 1-.554.166c-.388 0-.665-.222-.831-.72l-.166-.666h-2.55l-.222.665c-.055.222-.166.388-.277.555-.11.11-.277.166-.498.166-.5 0-.72-.222-.72-.665-.112-.166-.056-.444.11-.776zm1.995-1.386h1.663l-.776-2.494-.887 2.494z" fill="#EA2B16" fill-rule="nonzero"/></g></svg>