<svg xmlns="http://www.w3.org/2000/svg" width="160" height="48" viewBox="0 0 160 48"><defs><linearGradient id="a" x1="91.488%" x2="-38.352%" y1="4.948%" y2="71.907%"><stop offset="0%" stop-color="#00A0FF"/><stop offset="1%" stop-color="#00A1FF"/><stop offset="26%" stop-color="#00BEFF"/><stop offset="51%" stop-color="#00D2FF"/><stop offset="76%" stop-color="#00DFFF"/><stop offset="100%" stop-color="#00E3FF"/></linearGradient><linearGradient id="b" x1="107.685%" x2="-130.64%" y1="50%" y2="50%"><stop offset="0%" stop-color="#FFE000"/><stop offset="41%" stop-color="#FFBD00"/><stop offset="78%" stop-color="#FFA500"/><stop offset="100%" stop-color="#FF9C00"/></linearGradient><linearGradient id="c" x1="86.219%" x2="-50.15%" y1="17.877%" y2="194.703%"><stop offset="0%" stop-color="#FF3A44"/><stop offset="100%" stop-color="#C31162"/></linearGradient><linearGradient id="d" x1="-18.754%" x2="42.121%" y1="-54.052%" y2="24.917%"><stop offset="0%" stop-color="#32A071"/><stop offset="7%" stop-color="#2DA771"/><stop offset="48%" stop-color="#15CF74"/><stop offset="80%" stop-color="#06E775"/><stop offset="100%" stop-color="#00F076"/></linearGradient></defs><g fill="none"><rect width="160" height="48" fill="#2B2B2B" rx="6"/><path fill="#FFF" d="M80.42 25.592c-2.788.013-5.038 2.257-5.03 5.015.01 2.757 2.274 4.987 5.062 4.982 2.787-.004 5.045-2.24 5.045-4.998a4.9 4.9 0 0 0-1.467-3.564 5.01 5.01 0 0 0-3.61-1.435zm0 8.033a3.073 3.073 0 0 1-2.982-1.719 3.01 3.01 0 0 1 .522-3.374 3.09 3.09 0 0 1 3.365-.759 3.035 3.035 0 0 1 1.948 2.818 2.875 2.875 0 0 1-.78 2.112 2.94 2.94 0 0 1-2.073.922zm-11.07-8.033c-2.789.007-5.045 2.248-5.04 5.007.004 2.759 2.267 4.993 5.056 4.99 2.79-.002 5.05-2.239 5.05-4.998a4.9 4.9 0 0 0-1.467-3.564 5.01 5.01 0 0 0-3.61-1.435h.012zm0 8.033a3.073 3.073 0 0 1-2.99-1.71 3.01 3.01 0 0 1 .514-3.378 3.09 3.09 0 0 1 3.366-.764 3.035 3.035 0 0 1 1.952 2.818 2.875 2.875 0 0 1-.78 2.112 2.94 2.94 0 0 1-2.073.922h.012zm-13.185-6.492v2.117H61.3c-.08.997-.5 1.938-1.189 2.67a5.286 5.286 0 0 1-3.96 1.552c-3.151 0-5.706-2.527-5.706-5.645 0-3.118 2.555-5.645 5.707-5.645a5.502 5.502 0 0 1 3.888 1.517l1.51-1.494a7.52 7.52 0 0 0-5.386-2.2 7.88 7.88 0 0 0-7.06 3.795 7.702 7.702 0 0 0 0 7.948 7.88 7.88 0 0 0 7.06 3.794 7.175 7.175 0 0 0 5.48-2.175 7.012 7.012 0 0 0 1.856-4.964 6.831 6.831 0 0 0-.12-1.329l-7.216.06zm53.872 1.647a4.75 4.75 0 0 0-4.328-3.188 4.78 4.78 0 0 0-3.472 1.48 4.675 4.675 0 0 0-1.284 3.519 4.865 4.865 0 0 0 1.436 3.554 4.974 4.974 0 0 0 3.582 1.444 5.045 5.045 0 0 0 4.209-2.21l-1.724-1.177a2.896 2.896 0 0 1-2.485 1.388 2.57 2.57 0 0 1-2.45-1.517l6.766-2.764-.25-.53zm-6.896 1.67a2.722 2.722 0 0 1 .7-2.007 2.783 2.783 0 0 1 1.94-.91 1.966 1.966 0 0 1 1.878 1.059l-4.518 1.858zm-5.493 4.845h2.224V20.594h-2.224v14.701zM94.01 26.71h-.083a3.584 3.584 0 0 0-2.664-1.176c-2.698.13-4.82 2.331-4.82 5.004 0 2.673 2.122 4.875 4.82 5.004a3.465 3.465 0 0 0 2.664-1.176h.071v.718c0 1.917-1.034 2.94-2.699 2.94a2.793 2.793 0 0 1-2.544-1.776l-1.938.8A4.816 4.816 0 0 0 91.299 40c2.604 0 4.756-1.517 4.756-5.21v-8.904H94.01v.824zm-2.545 6.915c-1.59-.138-2.809-1.455-2.809-3.034 0-1.579 1.22-2.896 2.81-3.034a2.866 2.866 0 0 1 1.996.954c.508.571.761 1.321.702 2.08a2.78 2.78 0 0 1-.699 2.09 2.842 2.842 0 0 1-2.011.944h.011zm28.988-13.031h-5.315v14.701h2.223v-5.574h3.104a4.64 4.64 0 0 0 4.28-2.182 4.533 4.533 0 0 0 0-4.763 4.64 4.64 0 0 0-4.28-2.182h-.012zm0 7.057h-3.104v-5.01h3.151c1.409 0 2.55 1.129 2.55 2.522 0 1.393-1.141 2.523-2.55 2.523l-.047-.035zm13.709-2.117a4.17 4.17 0 0 0-3.96 2.246l1.974.812a2.11 2.11 0 0 1 2.021-1.082 2.157 2.157 0 0 1 1.59.453c.448.356.731.875.788 1.44v.153a4.954 4.954 0 0 0-2.318-.565c-2.129 0-4.28 1.177-4.28 3.305a3.385 3.385 0 0 0 1.152 2.388 3.46 3.46 0 0 0 2.533.847 3.138 3.138 0 0 0 2.854-1.412h.071v1.176h2.14v-5.657c0-2.575-1.973-4.07-4.506-4.07l-.06-.034zm-.274 8.056c-.725 0-1.736-.365-1.736-1.247 0-1.176 1.26-1.564 2.378-1.564a3.982 3.982 0 0 1 2.021.494 2.676 2.676 0 0 1-2.603 2.352l-.06-.035zm12.639-7.704l-2.544 6.375h-.072l-2.64-6.375h-2.377l3.959 8.915-2.26 4.952h2.32L149 25.886h-2.473zm-19.987 9.41h2.224V20.593h-2.224v14.701z"/><path fill="url(#a)" d="M12.538 9.081a2.31 2.31 0 0 0-.534 1.62V36.3a2.31 2.31 0 0 0 .534 1.62l.081.081L27 23.674v-.336L12.62 9l-.082.081z"/><path fill="url(#b)" d="M31.847 28L27 23.175v-.339L31.847 18l.107.058 5.805 3.26c1.655.923 1.655 2.441 0 3.376l-5.782 3.248-.13.058z"/><path fill="url(#c)" d="M31.988 27.92L26.931 23 12 37.527a1.995 1.995 0 0 0 2.493.07L32 27.92"/><path fill="url(#d)" d="M32 18.08L14.493 8.403a1.995 1.995 0 0 0-2.493.07L26.943 23 32 18.08z"/><path fill="#000" d="M31.856 28l-17.374 9.456a2.077 2.077 0 0 1-2.398 0l-.084.08.084.08c.71.512 1.688.512 2.398 0L32 28.103 31.856 28z" opacity=".2"/><path fill="#000" d="M12.544 37.82a2.446 2.446 0 0 1-.54-1.684v.18a2.446 2.446 0 0 0 .54 1.684l.082-.084-.082-.096zm25.283-13.256l-5.863 3.404.105.108 5.758-3.344A2.105 2.105 0 0 0 39 23a2.23 2.23 0 0 1-1.173 1.564z" opacity=".12"/><path fill="#FFF" d="M14.978 8.553l22.85 12.93A2.172 2.172 0 0 1 39 23a2.042 2.042 0 0 0-1.172-1.68L14.978 8.39C13.337 7.468 12 8.238 12 10.105v.175c.035-1.879 1.348-2.649 2.978-1.727z" opacity=".25"/><path fill="#FFF" stroke="#FFF" stroke-width=".2" d="M49.877 17H49v-2.427h.747a3.521 3.521 0 0 0 .9-2.791V8.177h4.742v6.384h.794v2.427h-.877v-1.53h-5.429V17zm1.648-5.182a4.946 4.946 0 0 1-.676 2.791h3.556V9.075h-2.88v2.743zm11.746 2.694a3.637 3.637 0 0 1-5.216 0 4 4 0 0 1 0-5.4A3.632 3.632 0 0 1 60.663 8c.98 0 1.918.4 2.608 1.112a3.988 3.988 0 0 1 0 5.4zm-4.54-.607a2.693 2.693 0 0 0 3.864 0 3.162 3.162 0 0 0 0-4.174 2.693 2.693 0 0 0-3.864 0 3.162 3.162 0 0 0 0 4.174zm10.193 1.711a3.583 3.583 0 0 1-2.64-1.09 3.761 3.761 0 0 1-1.058-2.708 3.761 3.761 0 0 1 1.057-2.707 3.583 3.583 0 0 1 2.641-1.092 3.251 3.251 0 0 1 2.608 1.214l-.64.631a2.348 2.348 0 0 0-1.98-.922 2.657 2.657 0 0 0-1.967.8 3.174 3.174 0 0 0 0 4.212c.521.531 1.232.82 1.967.8a2.786 2.786 0 0 0 2.17-1.08l.64.656c-.323.4-.728.724-1.186.947a3.66 3.66 0 0 1-1.612.34zm6.52-.157h-.914V9.075h-1.99v-.898h4.882v.898h-1.979v6.384zm8.26-7.282l-2.69 6.14a1.798 1.798 0 0 1-1.636 1.3 1.79 1.79 0 0 1-.711-.158l.237-.862a.943.943 0 0 0 .474.134.826.826 0 0 0 .498-.122 1.14 1.14 0 0 0 .32-.461l.26-.582-2.37-5.377h1.079l1.754 4.175 1.707-4.187h1.078zm1.032 7.282V8.177h5.144v7.282h-.913V9.075h-3.319v6.384h-.912zm6.767 0V8.177h.913v3.12h3.556v-3.12h.912v7.282h-.912v-3.29h-3.556v3.29h-.913zm12.837-.947a3.637 3.637 0 0 1-5.215 0 4 4 0 0 1 0-5.4A3.632 3.632 0 0 1 101.732 8c.98 0 1.918.4 2.608 1.112a3.988 3.988 0 0 1 0 5.4zm-4.54-.607a2.693 2.693 0 0 0 3.864 0 3.162 3.162 0 0 0 0-4.174 2.693 2.693 0 0 0-3.864 0 3.162 3.162 0 0 0 0 4.174zm9.316 1.554V8.177h2.572c.534-.01 1.052.19 1.446.558.401.357.627.877.617 1.42.005.324-.086.641-.261.91a1.657 1.657 0 0 1-.7.595c.344.117.646.337.866.631.228.298.35.666.344 1.044a1.926 1.926 0 0 1-.64 1.48c-.413.39-.956.603-1.518.595l-2.726.049zm.913-4.163h1.66c.313.013.616-.115.829-.352a1.094 1.094 0 0 0 .047-1.553 1.008 1.008 0 0 0-.794-.352h-1.695l-.047 2.257zm0 3.265h1.837c.325.01.638-.127.853-.377.21-.221.328-.517.332-.825 0-.67-.53-1.213-1.185-1.213h-1.802l-.035 2.415z"/></g></svg>